Coordinates
version=1
nRows=17
nColumns=38
inDegrees=no

Units are S.I. units (second, meters, Newtons, ...)
If the header above contains a line with 'inDegrees', this indicates whether rotational values are in degrees (yes) or radians (no).

endheader
time	pelvis_tilt	pelvis_list	pelvis_rotation	pelvis_tx	pelvis_ty	pelvis_tz	hip_flexion_r	hip_adduction_r	hip_rotation_r	knee_angle_r	ankle_angle_r	subtalar_angle_r	mtp_angle_r	hip_flexion_l	hip_adduction_l	hip_rotation_l	knee_angle_l	ankle_angle_l	subtalar_angle_l	mtp_angle_l	lumbar_extension	lumbar_bending	lumbar_rotation	arm_flex_r	arm_add_r	arm_rot_r	elbow_flex_r	pro_sup_r	wrist_flex_r	wrist_dev_r	arm_flex_l	arm_add_l	arm_rot_l	elbow_flex_l	pro_sup_l	wrist_flex_l	wrist_dev_l
15	2.53722	1.4113	-0.988847	0.708296	-1.24648	0.928962	0.234876	-0.0370219	-0.570088	0.487159	-0.067056	0	0	-0.361712	-0.0182918	-0.365273	0.0272785	0.113515	0	0	-0.358862	0.0102889	-0.00274309	0.36336	-0.398832	0.143763	1.6711	0	0	0	0.44184	-0.255672	0.115614	2.12133	0.872657	0	0
15.01	2.54265	1.37369	-1.00016	0.710296	-1.24758	0.933407	0.193277	-0.00266766	-0.5585	0.462614	-0.087432	0	0	-0.399683	-0.040781	-0.380669	0.0252178	0.109315	0	0	-0.400004	0.0249361	0.00960591	0.367203	-0.399739	0.141602	1.67963	0	0	0	0.44771	-0.258854	0.117881	2.13134	0	0	0
15.02	2.53229	1.41136	-0.97973	0.70758	-1.24621	0.928847	0.24111	-0.0397043	-0.568038	0.496879	-0.0729359	0	0	-0.363341	-0.0190505	-0.360581	0.0232685	0.11437	0	0	-0.360856	0.0109394	-0.00758821	0.352708	-0.400554	0.136822	1.67893	0	0	0	0.432747	-0.258696	0.11807	2.1392	0.872657	0	0
15.03	2.53166	1.4088	-0.976184	0.706866	-1.24612	0.929201	0.244211	-0.0472597	-0.57071	0.515283	-0.0678035	0	0	-0.366392	-0.0203568	-0.358639	0.0211977	0.113634	0	0	-0.365283	0.0135995	-0.0108434	0.347775	-0.402941	0.136094	1.69627	0	0	0	0.427182	-0.259431	0.116659	2.14764	0	0	0
15.04	2.51008	1.36502	-0.966947	0.708559	-1.24908	0.934899	0.178808	0.012641	-0.578316	0.429047	-0.112041	0	0	-0.403268	-0.048921	-0.379801	0.0225744	0.107088	0	0	-0.415399	0.0368646	0.00961546	0.359286	-0.40842	0.137285	1.70484	0	0	0	0.434803	-0.258476	0.11474	2.15725	0	0	0
15.05	2.53087	1.37042	-0.980206	0.709244	-1.24676	0.93364	0.200209	-0.00290899	-0.55944	0.474739	-0.0865452	0	0	-0.405782	-0.0458411	-0.372166	0.0174935	0.108913	0	0	-0.408243	0.028644	-0.000236637	0.344617	-0.40449	0.133159	1.71248	0	0	0	0.426071	-0.266406	0.113986	2.1695	0.872657	0	0
15.06	2.54979	1.38214	-0.989053	0.709323	-1.24995	0.935953	0.193491	-0.00350433	-0.581284	0.429351	-0.110596	0	0	-0.379312	-0.0441554	-0.356707	0.0390558	0.101098	0	0	-0.409352	0.00901819	-0.0174692	0.346552	-0.390216	0.12899	1.68731	0	0	0	0.430492	-0.274632	0.12237	2.17796	0.872657	0	0
15.07	2.52038	1.3701	-0.967116	0.709081	-1.24628	0.933759	0.205758	-0.00026487	-0.553734	0.475296	-0.0898271	0	0	-0.4044	-0.0490414	-0.373115	0.0190074	0.110849	0	0	-0.411629	0.0298002	-0.00441297	0.334811	-0.406707	0.131266	1.72485	0	0	0	0.414679	-0.270952	0.109739	2.18482	0.872657	0	0
15.08	2.48732	1.36636	-0.941184	0.708483	-1.2481	0.934888	0.193644	0.0163185	-0.564928	0.434938	-0.110725	0	0	-0.400469	-0.0532835	-0.379279	0.0220889	0.108537	0	0	-0.419781	0.0374341	0.0035031	0.338309	-0.412983	0.132455	1.73229	0	0	0	0.412574	-0.266723	0.105555	2.18737	0.872657	0	0
15.09	2.5095	1.37301	-0.955766	0.709168	-1.2455	0.933537	0.215443	0.000600683	-0.545409	0.478149	-0.0891276	0	0	-0.401618	-0.049292	-0.372508	0.0182371	0.110764	0	0	-0.411765	0.0282203	-0.00604645	0.324473	-0.408397	0.127761	1.74	0	0	0	0.404713	-0.274359	0.106408	2.20116	0	0	0
15.1	2.47551	1.36798	-0.926897	0.708274	-1.24723	0.934816	0.200988	0.01807	-0.558598	0.43528	-0.107981	0	0	-0.397474	-0.0551873	-0.378093	0.0231546	0.109177	0	0	-0.420846	0.0376319	0.000617227	0.329091	-0.41466	0.128484	1.74599	0	0	0	0.403531	-0.269846	0.104129	2.20292	0.872657	0	0
15.11	2.49442	1.37423	-0.938494	0.708978	-1.2446	0.933504	0.223349	0.00327691	-0.539881	0.478241	-0.0844635	0	0	-0.398176	-0.0519994	-0.372226	0.0204118	0.11201	0	0	-0.413088	0.0291225	-0.008293	0.315913	-0.410024	0.123648	1.75349	0	0	0	0.396561	-0.277277	0.105663	2.21703	0.872657	0	0
15.12	2.53309	1.37093	-0.967752	0.70809	-1.24823	0.936126	0.201745	0.00639878	-0.563186	0.433081	-0.105696	0	0	-0.389342	-0.0531162	-0.360327	0.0389244	0.106953	0	0	-0.435104	0.026132	-0.0183465	0.325246	-0.406537	0.121348	1.75602	0	0	0	0.406604	-0.28175	0.106789	2.22447	0.872657	0	0
15.13	2.47538	1.37643	-0.91907	0.709044	-1.24336	0.933288	0.232884	0.00614928	-0.534501	0.477463	-0.0818435	0	0	-0.39453	-0.0539746	-0.372811	0.0217373	0.113499	0	0	-0.41282	0.0292352	-0.00941224	0.308303	-0.410957	0.119799	1.76428	0	0	0	0.388618	-0.280628	0.106703	2.23371	0.872657	0	0
15.14	2.46508	1.37686	-0.908972	0.709152	-1.24267	0.933242	0.236538	0.00828566	-0.532476	0.475625	-0.080315	0	0	-0.393917	-0.0555416	-0.372713	0.0215487	0.113546	0	0	-0.4132	0.0296954	-0.00953694	0.305543	-0.411477	0.118434	1.76778	0	0	0	0.385655	-0.282014	0.106057	2.23942	0.872657	0	0
15.15	2.38874	1.3755	-0.84328	0.708252	-1.24384	0.934234	0.235159	0.0329982	-0.52031	0.445993	-0.0618034	0	0	-0.381973	-0.0631907	-0.384626	0.0268642	0.112643	0	0	-0.409351	0.044154	0.0114818	0.301721	-0.422456	0.110586	1.77235	0	0	0	0.380251	-0.317031	0.386655	1.91659	0	0	0
15.16	2.43568	1.3789	-0.883023	0.709589	-1.24168	0.932975	0.25295	0.0173335	-0.501059	0.489669	-0.030746	0	0	-0.389487	-0.0583878	-0.375256	0.0232104	0.115066	0	0	-0.413224	0.0303452	-0.00720851	0.303493	-0.413532	0.117338	1.7736	0	0	0	0.382742	-0.283941	0.104716	2.24895	0	0	0
